<svg xmlns="http://www.w3.org/2000/svg" xmlns:xlink="http://www.w3.org/1999/xlink" xmlns:inkscape="http://www.inkscape.org/namespaces/inkscape" version="1.1" width="330" height="148" viewBox="129 238 330 148">
<defs>
<clipPath id="clip_1">
<path transform="matrix(1,0,0,-1,0,566.929)" d="M134.46 185.959H453.05299V323.687H134.46Z"/>
</clipPath>
</defs>
<g inkscape:groupmode="layer" inkscape:label="Calque 1">
<g clip-path="url(#clip_1)">
<path transform="matrix(1,0,0,-1,405.7586,366.9433)" d="M0 0H-.811V-1.052H.019C.441-1.052 .667-.839 .667-.531 .667-.176 .411 0 0 0M.693-1.602 1.614-2.887H.646L-.156-1.731H-.811V-2.887H-1.644V.699H.031C.93 .699 1.508 .261 1.508-.484 1.508-1.071 1.175-1.435 .693-1.602M-.177 1.805C-1.965 1.805-3.316 .457-3.316-1.201-3.316-2.858-1.975-4.19-.194-4.19 1.595-4.19 2.947-2.841 2.947-1.183 2.947 .474 1.606 1.805-.177 1.805M-.194-4.563C-2.182-4.563-3.726-3.044-3.726-1.201-3.726 .641-2.161 2.179-.177 2.179 1.811 2.179 3.357 .662 3.357-1.183 3.357-3.027 1.791-4.563-.194-4.563" fill="#393a60"/>
<path transform="matrix(1,0,0,-1,200.6383,366.3302)" d="M0 0C.088 .425 .221 .425 .327 .425 .464 .425 .571 .403 .658 .381L2.303 .063C2.478 .024 2.719-.022 2.719-.149 2.719-.256 2.654-.465 2.611-.616L-.59-14.091C-.678-14.389-.746-14.474-1.075-14.474H-2.961C-3.353-14.474-3.378-14.406-3.441-14.091L-4.891-6.971C-5.085-6.017-5.283-4.704-5.395-3.305H-5.439C-5.545-4.726-5.743-5.995-5.985-6.971L-7.762-14.091C-7.848-14.406-7.848-14.474-8.245-14.474H-10.131C-10.457-14.474-10.546-14.389-10.611-14.091L-13.46-.594C-13.484-.445-13.549-.256-13.549-.127-13.549 0-13.311 .039-13.133 .085L-11.424 .381C-11.336 .403-11.226 .425-11.094 .425-10.984 .425-10.853 .425-10.765 0L-9.45-6.863C-9.231-8.032-9.056-9.79-8.97-10.87H-8.923C-8.792-9.663-8.487-7.944-8.221-6.863L-6.664-.406C-6.556 .039-6.533 .233-6.009 .233H-4.516C-4.166 .233-4.143 .039-4.034-.406L-2.478-6.863C-2.217-7.944-1.994-9.663-1.863-10.87H-1.819C-1.734-9.79-1.534-8.032-1.315-6.863Z" fill="#393a60"/>
<path transform="matrix(1,0,0,-1,213.9274,380.31373)" d="M0 0C0-.234-.044-.296-.308-.296H-2.481C-2.742-.296-2.786-.234-2.786 0V6.526C-2.786 7.33-2.896 8.306-4.015 8.306-4.934 8.306-5.593 7.672-5.878 7.414V0C-5.878-.234-5.922-.296-6.186-.296H-8.356C-8.618-.296-8.664-.234-8.664 0V14.237C-8.664 14.557-8.508 14.557-8.249 14.619L-6.405 14.98C-6.339 14.98-6.143 15.041-6.099 15.041-5.922 15.041-5.878 14.956-5.878 14.596V9.325C-5.286 9.787-4.411 10.53-2.852 10.53-.527 10.53 0 9.024 0 7.181Z" fill="#393a60"/>
<path transform="matrix(1,0,0,-1,222.3223,374.12794)" d="M0 0C0 .87-.067 2.371-1.578 2.371-3.29 2.371-3.378 .594-3.441 0ZM2.544-5.362C2.59-5.425 2.609-5.508 2.609-5.596 2.609-6.144 .417-6.843-1.315-6.843-4.208-6.843-6.227-5.256-6.227-1.352-6.227 2.013-4.364 4.342-1.425 4.342 2.304 4.342 2.961 1.122 2.961-1.44 2.961-1.843 2.873-1.971 2.453-1.971H-3.441C-3.441-3.156-3.092-4.619-1.03-4.619 .548-4.619 1.448-3.919 1.756-3.919 1.863-3.919 1.954-4.003 1.998-4.086Z" fill="#393a60"/>
<path transform="matrix(1,0,0,-1,230.2146,380.31373)" d="M0 0C0-.234-.044-.296-.305-.296H-2.478C-2.739-.296-2.782-.234-2.782 0V6.396C-2.782 8.729-3.353 9.108-3.353 9.597-3.353 9.682-3.267 9.748-3.155 9.787L-1.49 10.445C-1.404 10.467-1.292 10.53-1.205 10.53-.94 10.53-.501 9.575-.394 8.858 .023 9.342 .837 10.53 2.325 10.53 2.961 10.53 3.598 10.318 3.598 10.042 3.598 9.958 3.576 9.87 3.554 9.832L2.873 8.051C2.852 7.99 2.786 7.86 2.7 7.86 2.567 7.86 2.171 8.093 1.669 8.093 .986 8.093 .289 7.372 0 7.074Z" fill="#393a60"/>
<path transform="matrix(1,0,0,-1,240.0862,374.12794)" d="M0 0C0 .87-.067 2.371-1.578 2.371-3.288 2.371-3.376 .594-3.441 0ZM2.544-5.362C2.59-5.425 2.609-5.508 2.609-5.596 2.609-6.144 .417-6.843-1.315-6.843-4.208-6.843-6.227-5.256-6.227-1.352-6.227 2.013-4.364 4.342-1.425 4.342 2.304 4.342 2.961 1.122 2.961-1.44 2.961-1.843 2.875-1.971 2.453-1.971H-3.441C-3.441-3.156-3.092-4.619-1.03-4.619 .548-4.619 1.448-3.919 1.756-3.919 1.863-3.919 1.952-4.003 1.994-4.086Z" fill="#393a60"/>
<path transform="matrix(1,0,0,-1,263.8095,380.16813)" d="M0 0C0-.379-.088-.442-.461-.442H-2.39C-2.763-.442-2.851-.379-2.851 0L-3.026 7.184C-3.049 7.947-3.068 9.812-3.068 10.575H-3.112C-3.246 9.812-3.639 8.012-3.88 7.247L-5.22 3.117C-5.304 2.822-5.327 2.758-5.7 2.758H-7.06C-7.431 2.758-7.456 2.822-7.54 3.117L-8.813 7.247C-9.053 8.012-9.45 9.812-9.58 10.575H-9.624C-9.624 9.812-9.648 7.947-9.669 7.184L-9.89 0C-9.909-.379-9.975-.442-10.35-.442H-11.947C-12.324-.442-12.43-.379-12.409 0L-11.797 13.628C-11.797 14.007-11.709 14.071-11.332 14.071H-9.228C-8.879 14.071-8.857 14.049-8.748 13.734L-6.973 8.394C-6.685 7.545-6.445 6.675-6.316 5.851H-6.27C-6.137 6.675-6.053 6.997-5.568 8.394L-3.703 13.734C-3.595 14.03-3.576 14.071-3.178 14.071H-1.075C-.7 14.071-.655 13.968-.615 13.393Z" fill="#393a60"/>
<path transform="matrix(1,0,0,-1,272.184,374.12794)" d="M0 0C0 .87-.063 2.371-1.578 2.371-3.285 2.371-3.372 .594-3.441 0ZM2.544-5.362C2.588-5.425 2.612-5.508 2.612-5.596 2.612-6.144 .417-6.843-1.315-6.843-4.208-6.843-6.227-5.256-6.227-1.352-6.227 2.013-4.36 4.342-1.422 4.342 2.304 4.342 2.961 1.122 2.961-1.44 2.961-1.843 2.873-1.971 2.457-1.971H-3.441C-3.441-3.156-3.092-4.619-1.03-4.619 .552-4.619 1.448-3.919 1.756-3.919 1.867-3.919 1.954-4.003 1.994-4.086Z" fill="#393a60"/>
<path transform="matrix(1,0,0,-1,282.9294,372.32463)" d="M0 0C-.198 .103-.571 .421-1.49 .421-3.134 .421-3.463-.763-3.463-3.117-3.463-5.511-3.049-6.526-1.625-6.526-.634-6.526-.264-6.063 0-5.783ZM1.317-8.564C1.229-8.584 1.119-8.645 1.03-8.645 .833-8.645 .504-7.905 .396-7.376 .044-7.694-.919-8.645-2.5-8.645-4.997-8.645-6.249-6.699-6.249-3.474-6.249 .53-4.756 2.54-2.038 2.54-.856 2.54-.352 2.137 0 1.904V6.247C0 6.568 .154 6.568 .417 6.629L2.259 6.99C2.327 6.99 2.521 7.052 2.563 7.052 2.74 7.052 2.782 6.968 2.782 6.607V-4.959C2.782-7.014 3.178-7.293 3.178-7.714 3.178-7.799 3.092-7.863 2.982-7.905Z" fill="#393a60"/>
<path transform="matrix(1,0,0,-1,290.6028,368.76594)" d="M0 0C-1.007 0-1.818 .782-1.818 1.758-1.818 2.731-1.007 3.492 0 3.492 .986 3.492 1.8 2.731 1.8 1.758 1.8 .782 .986 0 0 0M1.404-11.548C1.404-11.782 1.359-11.844 1.098-11.844H-1.073C-1.336-11.844-1.382-11.782-1.382-11.548V-3.349H-3.07C-3.334-3.349-3.378-3.286-3.378-3.052V-1.677C-3.378-1.443-3.334-1.379-3.07-1.379H1.098C1.359-1.379 1.404-1.443 1.404-1.677Z" fill="#393a60"/>
<path transform="matrix(1,0,0,-1,315.3807,380.31373)" d="M0 0C0-.234-.046-.296-.306-.296H-2.478C-2.74-.296-2.786-.234-2.786 0V6.526C-2.786 7.33-2.875 8.306-3.705 8.306-4.628 8.306-5.353 7.69-5.635 7.438V0C-5.635-.234-5.678-.296-5.943-.296H-8.114C-8.375-.296-8.421-.234-8.421 0V6.526C-8.421 7.33-8.506 8.306-9.338 8.306-10.263 8.306-10.984 7.69-11.269 7.438V0C-11.269-.234-11.313-.296-11.579-.296H-13.747C-14.013-.296-14.055-.234-14.055 0V6.396C-14.055 9.387-14.472 9.215-14.472 9.702-14.472 9.809-14.384 9.893-14.23 9.936L-12.565 10.467C-12.432 10.509-12.324 10.53-12.236 10.53-11.951 10.53-11.775 10.064-11.536 9.069-10.877 9.621-9.909 10.53-8.179 10.53-7.235 10.53-6.204 9.958-5.943 9.069-5.288 9.621-4.346 10.53-2.544 10.53-.485 10.53 0 9.024 0 7.181Z" fill="#393a60"/>
<path transform="matrix(1,0,0,-1,323.6629,374.12794)" d="M0 0C0 .87-.061 2.371-1.576 2.371-3.281 2.371-3.372 .594-3.437 0ZM2.549-5.362C2.593-5.425 2.612-5.508 2.612-5.596 2.612-6.144 .42-6.843-1.311-6.843-4.204-6.843-6.223-5.256-6.223-1.352-6.223 2.013-4.358 4.342-1.42 4.342 2.31 4.342 2.963 1.122 2.963-1.44 2.963-1.843 2.879-1.971 2.46-1.971H-3.437C-3.437-3.156-3.087-4.619-1.026-4.619 .557-4.619 1.45-3.919 1.762-3.919 1.868-3.919 1.954-4.003 2.001-4.086Z" fill="#393a60"/>
<path transform="matrix(1,0,0,-1,334.3685,374.12794)" d="M0 0C0 .87-.072 2.371-1.581 2.371-3.288 2.371-3.376 .594-3.443 0ZM2.542-5.362C2.586-5.425 2.609-5.508 2.609-5.596 2.609-6.144 .413-6.843-1.315-6.843-4.213-6.843-6.225-5.256-6.225-1.352-6.225 2.013-4.364 4.342-1.422 4.342 2.304 4.342 2.961 1.122 2.961-1.44 2.961-1.843 2.872-1.971 2.455-1.971H-3.443C-3.443-3.156-3.094-4.619-1.028-4.619 .548-4.619 1.448-3.919 1.751-3.919 1.86-3.919 1.952-4.003 1.994-4.086Z" fill="#393a60"/>
<path transform="matrix(1,0,0,-1,345.9671,379.9964)" d="M0 0C.019-.107 .044-.107 .044-.173 .044-.574-1.557-.973-3.049-.973-5.878-.973-5.878 1.164-5.878 3.113V7.883H-7.433C-7.697 7.883-7.741 7.944-7.741 8.178V9.553C-7.741 9.787-7.697 9.851-7.433 9.851H-5.878V12.521C-5.878 12.797-5.831 12.863-5.526 12.903L-3.595 13.161C-3.532 13.161-3.441 13.176-3.313 13.176-3.112 13.176-3.096 13.073-3.096 12.817V9.851H-.594C-.394 9.851-.221 9.851-.221 9.618-.221 9.575-.221 9.536-.242 9.448L-.527 8.201C-.594 7.905-.658 7.883-.923 7.883H-3.096V2.755C-3.096 2.076-3.096 1.46-2.346 1.46-1.471 1.46-.923 1.866-.615 1.866-.527 1.866-.462 1.821-.44 1.736Z" fill="#393a60"/>
<path transform="matrix(1,0,0,-1,353.5542,372.26344)" d="M0 0C-.049-.107-.152-.191-.175-.191-.242-.191-1.315 .36-2.719 .36-3.553 .36-4.167 .066-4.167-.658-4.167-1.8-2.192-1.716-.636-2.711 .219-3.262 .832-4.071 .832-5.296 .832-7.247-.59-8.707-2.919-8.707-4.539-8.707-7.039-7.905-7.039-7.332-7.039-7.266-6.95-7.142-6.93-7.054L-6.449-5.846C-6.402-5.741-6.361-5.657-6.272-5.657-6.185-5.657-4.495-6.587-3.136-6.587-2.411-6.587-1.802-6.293-1.802-5.53-1.802-4.305-3.949-4.305-5.397-3.371-6.051-2.946-6.691-2.205-6.691-.976-6.691 .951-5.178 2.479-2.807 2.479-1.471 2.479 .613 1.931 .613 1.442 .613 1.376 .546 1.252 .503 1.166Z" fill="#393a60"/>
<path transform="matrix(1,0,0,-1,366.4031,372.58073)" d="M0 0C1.294 0 2.518 .211 2.518 2.352 2.518 4.196 1.355 4.259 .214 4.259H-.685V0ZM-.685-7.587C-.685-7.966-.769-8.029-1.142-8.029H-3.178C-3.553-8.029-3.639-7.966-3.639-7.587V6.039C-3.639 6.418-3.553 6.484-3.178 6.484H.369C2.145 6.484 5.479 6.484 5.479 2.501 5.479-.997 2.782-2.225 .481-2.225H-.685Z" fill="#393a60"/>
<path transform="matrix(1,0,0,-1,378.5515,374.12794)" d="M0 0C0 .87-.067 2.371-1.578 2.371-3.29 2.371-3.374 .594-3.444 0ZM2.541-5.362C2.588-5.425 2.607-5.508 2.607-5.596 2.607-6.144 .415-6.843-1.315-6.843-4.209-6.843-6.227-5.256-6.227-1.352-6.227 2.013-4.364 4.342-1.427 4.342 2.299 4.342 2.956 1.122 2.956-1.44 2.956-1.843 2.872-1.971 2.453-1.971H-3.444C-3.444-3.156-3.092-4.619-1.03-4.619 .546-4.619 1.446-3.919 1.751-3.919 1.863-3.919 1.951-4.003 1.994-4.086Z" fill="#393a60"/>
<path transform="matrix(1,0,0,-1,389.2974,372.32463)" d="M0 0C-.203 .103-.573 .421-1.492 .421-3.138 .421-3.469-.763-3.469-3.117-3.469-5.511-3.05-6.526-1.627-6.526-.639-6.526-.268-6.063 0-5.783ZM1.311-8.564C1.227-8.584 1.117-8.645 1.026-8.645 .828-8.645 .503-7.905 .39-7.376 .04-7.694-.925-8.645-2.5-8.645-5.003-8.645-6.251-6.699-6.251-3.474-6.251 .53-4.761 2.54-2.045 2.54-.862 2.54-.354 2.137 0 1.904V6.247C0 6.568 .151 6.568 .415 6.629L2.259 6.99C2.322 6.99 2.516 7.052 2.562 7.052 2.739 7.052 2.781 6.968 2.781 6.607V-4.959C2.781-7.014 3.174-7.293 3.174-7.714 3.174-7.799 3.087-7.863 2.98-7.905Z" fill="#393a60"/>
<path transform="matrix(1,0,0,-1,396.9685,368.76594)" d="M0 0C-1.007 0-1.818 .782-1.818 1.758-1.818 2.731-1.007 3.492 0 3.492 .988 3.492 1.798 2.731 1.798 1.758 1.798 .782 .988 0 0 0M1.401-11.548C1.401-11.782 1.361-11.844 1.094-11.844H-1.077C-1.341-11.844-1.382-11.782-1.382-11.548V-3.349H-3.07C-3.336-3.349-3.376-3.286-3.376-3.052V-1.677C-3.376-1.443-3.336-1.379-3.07-1.379H1.094C1.361-1.379 1.401-1.443 1.401-1.677Z" fill="#393a60"/>
<path transform="matrix(1,0,0,-1,0,566.929)" d="M453.052 212.24H134.45902V323.687H453.052Z" fill="#393a60"/>
<path transform="matrix(1,0,0,-1,0,566.929)" d="M141.583 220.003H445.19599V316.286H141.583ZM447.313 217.954H139.46298V318.335H447.313Z" fill="#ffffff"/>
<path transform="matrix(1,0,0,-1,166.0038,315.7987)" d="M0 0C0-.633-.326-.948-.981-.948H-5.244C-5.901-.948-6.227-.633-6.227 0V32.164H-11.966C-12.542 32.164-12.542 32.719-12.542 33.112V36.123C-12.542 36.677-12.542 37.076-11.966 37.076H-6.227V43.255C-6.227 49.195-4.997 56.403 5.167 56.403 8.939 56.403 14.187 54.819 14.187 53.633 14.187 53.396 13.938 53.078 13.772 52.523L12.625 49.909C12.464 49.67 12.301 49.431 12.05 49.431 10.658 49.431 8.365 51.095 4.922 51.095 .329 51.095 0 47.766 0 43.174V37.076H11.805C12.301 37.076 12.709 36.995 12.709 36.521 12.709 36.362 12.625 36.205 12.625 35.968L11.562 32.875C11.397 32.475 10.988 32.164 10.497 32.164H0Z" fill="#ffffff"/>
<path transform="matrix(1,0,0,-1,203.8111,297.41914)" d="M0 0C0 7.765-2.215 14.895-9.59 14.895-16.969 14.895-19.184 8.076-19.184 .24-19.184-8.794-17.053-15.525-9.51-15.525-2.215-15.525 0-9.11 0 0M-10.082-20.437C-21.15-20.437-25.904-11.805-25.904-.477-25.904 10.457-21.15 19.804-9.261 19.804 1.968 19.804 6.724 11.093 6.724-.078 6.724-11.173 1.886-20.437-10.082-20.437" fill="#ffffff"/>
<path transform="matrix(1,0,0,-1,242.753,297.41914)" d="M0 0C0 7.765-2.212 14.895-9.594 14.895-16.973 14.895-19.184 8.076-19.184 .24-19.184-8.794-17.053-15.525-9.51-15.525-2.212-15.525 0-9.11 0 0M-10.082-20.437C-21.15-20.437-25.906-11.805-25.906-.477-25.906 10.457-21.15 19.804-9.265 19.804 1.968 19.804 6.72 11.093 6.72-.078 6.72-11.173 1.884-20.437-10.082-20.437" fill="#ffffff"/>
<path transform="matrix(1,0,0,-1,280.2183,313.81663)" d="M0 0C.081-.318 .161-.555 .161-.792 .161-1.828-5.985-4.039-10.413-4.039-13.938-4.039-16.888-2.773-18.121-1.271-20.497 1.184-20.497 4.753-20.497 7.682V30.183H-26.647C-27.219 30.183-27.219 30.739-27.219 31.13V34.14C-27.219 34.695-27.219 35.095-26.647 35.095H-20.497V45.947C-20.497 46.421-20.168 46.739-19.594 46.895L-15.251 48.085C-15.004 48.085-14.841 48.166-14.675 48.166-14.267 48.166-14.267 47.766-14.267 47.294V35.095H-2.135C-1.641 35.095-1.233 35.013-1.233 34.54-1.233 34.381-1.311 34.222-1.311 33.985L-2.38 30.893C-2.541 30.494-2.95 30.183-3.444 30.183H-14.267V7.682C-14.267 4.513-14.267 1.266-9.345 1.266-5.495 1.266-2.215 3.403-1.478 3.403-1.149 3.403-.904 3.166-.904 2.929Z" fill="#ffffff"/>
<path transform="matrix(1,0,0,-1,300.2181,315.3252)" d="M0 0C.084-.156 .165-.393 .165-.555 .165-1.421-3.77-2.53-6.804-2.53-10.819-2.53-13.525-.948-14.509 1.271-15.656 3.883-15.656 9.983-15.656 12.755V53.873C-15.656 54.425-15.411 54.743-15.081 54.824L-10.982 55.773C-10.329 55.929-10.574 55.851-10 55.929-9.426 55.929-9.426 55.296-9.426 54.9V12.599C-9.426 10.144-9.342 6.102-9.181 5.154-9.016 4.277-8.279 2.381-5.901 2.381-3.77 2.381-2.212 3.409-1.637 3.409-1.149 3.409-1.149 3.173-1.063 2.936Z" fill="#ffffff"/>
<path transform="matrix(1,0,0,-1,327.6832,297.41914)" d="M0 0C0 7.765-2.215 14.895-9.592 14.895-16.971 14.895-19.186 8.076-19.186 .24-19.186-8.794-17.053-15.525-9.51-15.525-2.215-15.525 0-9.11 0 0M-10.084-20.437C-21.15-20.437-25.906-11.805-25.906-.477-25.906 10.457-21.15 19.804-9.265 19.804 1.963 19.804 6.72 11.093 6.72-.078 6.72-11.173 1.882-20.437-10.084-20.437" fill="#ffffff"/>
<path transform="matrix(1,0,0,-1,364.1653,285.0609)" d="M0 0C-1.397 .636-4.267 2.137-7.547 2.137-13.772 2.137-16.724-3.169-16.724-11.645-16.724-20.044-15.165-25.352-9.592-25.352-5.33-25.352-1.889-22.658 0-21.389ZM6.23-16.398C6.23-20.834 6.804-30.103 6.804-34.381 6.804-41.592 3.444-48.323-7.626-48.323-13.772-48.323-21.401-45.629-21.401-44.122-21.401-43.729-21.317-43.574-21.072-43.093L-19.758-40.401C-19.678-40.164-19.511-39.927-19.188-39.927-18.529-39.927-13.612-43.019-7.957-43.019-.329-43.019 .569-38.738 .569-34.462 .569-30.501 .326-27.254 .326-26.3-1.562-27.809-5.33-30.657-10.826-30.657-18.284-30.657-23.451-24.322-23.451-13.149-23.451-.712-18.45 7.445-8.037 7.445-2.627 7.445 .569 4.829 1.639 4.039 2.376 6.02 3.276 7.445 4.015 7.445 4.341 7.445 4.586 7.367 4.752 7.286L8.442 5.068C8.767 4.829 8.767 4.756 8.767 4.594 8.767 3.958 8.03 3.565 7.293 1.663 6.552-.318 6.23-1.345 6.23-4.201Z" fill="#ffffff"/>
<path transform="matrix(1,0,0,-1,387.5289,269.6134)" d="M0 0C-2.786 0-5.006 2.137-5.006 4.832-5.006 7.526-2.786 9.663 0 9.663 2.786 9.663 4.997 7.447 4.997 4.832 4.997 2.218 2.786 0 0 0M3.525-46.186C3.525-46.817 3.199-47.132 2.541-47.132H-1.723C-2.381-47.132-2.709-46.817-2.709-46.186V-14.02H-9.1C-9.755-14.02-10.088-13.709-10.088-13.073V-10.063C-10.088-9.426-9.755-9.11-9.1-9.11H2.457C3.36-9.11 3.525-9.582 3.525-10.3Z" fill="#ffffff"/>
<path transform="matrix(1,0,0,-1,426.7163,316.98915)" d="M0 0C-.413-.156-.658-.315-.988-.315-1.639-.315-1.809-.075-2.052 .318L-10.165 12.2C-10.907 13.311-11.809 14.655-12.301 15.531-13.04 14.342-13.611 13.548-14.512 12.284L-23.287 .318C-23.616-.075-23.693-.315-24.353-.315-24.68-.315-24.926-.156-25.332 0L-28.774 1.345C-29.103 1.509-29.434 1.589-29.434 1.981-29.434 2.22-29.268 2.462-29.103 2.617L-15.496 19.648-27.382 35.885C-27.55 36.047-27.71 36.284-27.71 36.521-27.71 36.917-27.382 36.995-27.055 37.157L-23.616 38.504C-23.203 38.663-22.959 38.821-22.63 38.821-21.97 38.821-21.895 38.585-21.565 38.184L-14.758 27.968C-13.861 26.619-12.954 25.195-12.301 24.166-11.397 25.431-10.501 26.777-9.676 27.968L-2.544 38.184C-2.297 38.585-2.135 38.821-1.478 38.821-1.15 38.821-.904 38.663-.494 38.504L2.95 37.157C3.276 36.995 3.604 36.917 3.604 36.521 3.604 36.284 3.36 36.047 3.276 35.885L-9.025 20.283 3.77 2.617C3.852 2.462 4.099 2.22 4.099 1.981 4.099 1.589 3.77 1.509 3.441 1.345Z" fill="#ffffff"/>
<path transform="matrix(1,0,0,-1,163.1774,331.61863)" d="M0 0C1.017 0 1.98 .166 1.98 1.846 1.98 3.296 1.068 3.347 .172 3.347H-.534V0ZM-.534-5.958C-.534-6.257-.601-6.31-.897-6.31H-2.497C-2.789-6.31-2.859-6.257-2.859-5.958V4.746C-2.859 5.044-2.789 5.096-2.497 5.096H.292C1.688 5.096 4.307 5.096 4.307 1.963 4.307-.785 2.189-1.748 .378-1.748H-.534Z" fill="#ffffff"/>
<path transform="matrix(1,0,0,-1,180.5788,337.57713)" d="M0 0C0-.298-.053-.35-.345-.35H-6.013C-6.307-.35-6.375-.298-6.375 0V10.704C-6.375 11.002-6.307 11.056-6.013 11.056H-.362C-.018 11.056 .068 11.022 .068 10.87 .068 10.788 .051 10.753 .017 10.636L-.312 9.519C-.378 9.274-.571 9.255-.707 9.255H-4.048V6.508H-1.122C-.811 6.508-.758 6.458-.758 6.159V5.061C-.758 4.758-.83 4.711-1.122 4.711H-4.048V1.45H-.362C-.053 1.45 0 1.398 0 1.1Z" fill="#ffffff"/>
<path transform="matrix(1,0,0,-1,190.535,336.12715)" d="M0 0C1.947 0 2.672 .814 2.672 3.993 2.672 6.971 1.931 7.804 0 7.804H-.622V0ZM.105 9.604C3.395 9.604 5.116 8.57 5.116 3.958 5.116-.817 3.119-1.8 .051-1.8H-2.584C-2.877-1.8-2.947-1.736-2.947-1.45V9.255C-2.947 9.553-2.877 9.604-2.567 9.604Z" fill="#ffffff"/>
<path transform="matrix(1,0,0,-1,206.9361,337.57713)" d="M0 0C0-.298-.07-.35-.362-.35H-4.582C-4.878-.35-4.945-.298-4.945 0V.898C-4.945 1.196-4.878 1.249-4.582 1.249H-3.635V9.455H-4.582C-4.878 9.455-4.945 9.504-4.945 9.805V10.704C-4.945 11.002-4.878 11.056-4.582 11.056H-.362C-.07 11.056 0 11.002 0 10.704V9.805C0 9.504-.07 9.455-.362 9.455H-1.308V1.249H-.362C-.07 1.249 0 1.196 0 .898Z" fill="#ffffff"/>
<path transform="matrix(1,0,0,-1,220.6825,336.8963)" d="M0 0C.051-.098 .088-.166 .088-.249 .088-.531-1.086-1.316-2.772-1.316-5.787-1.316-7.233 .58-7.233 4.577-7.233 8.404-5.754 10.653-2.772 10.653-1.481 10.653 .051 9.741 .051 9.423 .051 9.355 .051 9.291-.033 9.173L-.672 8.244C-.737 8.142-.809 8.073-.879 8.073-1.168 8.073-1.739 8.86-2.653 8.86-4.134 8.86-4.786 7.873-4.786 5.012-4.786 2.181-4.427 .484-2.653 .484-1.688 .484-1.068 1.1-.723 1.1-.655 1.1-.604 1.047-.534 .931Z" fill="#ffffff"/>
<path transform="matrix(1,0,0,-1,233.8441,337.57713)" d="M0 0C0-.298-.051-.35-.345-.35H-6.013C-6.304-.35-6.375-.298-6.375 0V10.704C-6.375 11.002-6.304 11.056-6.013 11.056H-.362C-.018 11.056 .07 11.022 .07 10.87 .07 10.788 .054 10.753 .017 10.636L-.308 9.519C-.378 9.274-.567 9.255-.707 9.255H-4.048V6.508H-1.117C-.807 6.508-.758 6.458-.758 6.159V5.061C-.758 4.758-.83 4.711-1.117 4.711H-4.048V1.45H-.362C-.051 1.45 0 1.398 0 1.1Z" fill="#ffffff"/>
<path transform="matrix(1,0,0,-1,248.9696,334.0675)" d="M0 0C0-2.479-.897-4.146-4.152-4.146-7.409-4.146-8.302-2.479-8.302 0V7.195C-8.302 7.492-8.235 7.545-7.943 7.545H-6.337C-6.05 7.545-5.978 7.492-5.978 7.195V0C-5.978-1.198-5.89-2.345-4.152-2.345-2.409-2.345-2.327-1.198-2.327 0V7.195C-2.327 7.492-2.255 7.545-1.965 7.545H-.359C-.07 7.545 0 7.492 0 7.195Z" fill="#ffffff"/>
<path transform="matrix(1,0,0,-1,260.0972,337.57713)" d="M0 0C0-.298-.067-.35-.359-.35H-1.963C-2.255-.35-2.325-.298-2.325 0V9.054H-4.582C-4.822 9.054-4.873 9.105-4.873 9.338V10.77C-4.873 11.002-4.822 11.056-4.582 11.056H2.518C2.865 11.056 2.949 11.022 2.949 10.87 2.949 10.788 2.931 10.753 2.898 10.636L2.535 9.32C2.464 9.054 2.276 9.054 2.14 9.054H0Z" fill="#ffffff"/>
<path transform="matrix(1,0,0,-1,273.4306,337.57713)" d="M0 0C0-.298-.067-.35-.359-.35H-4.579C-4.875-.35-4.941-.298-4.941 0V.898C-4.941 1.196-4.875 1.249-4.579 1.249H-3.632V9.455H-4.579C-4.875 9.455-4.941 9.504-4.941 9.805V10.704C-4.941 11.002-4.875 11.056-4.579 11.056H-.359C-.067 11.056 0 11.002 0 10.704V9.805C0 9.504-.067 9.455-.359 9.455H-1.308V1.249H-.359C-.067 1.249 0 1.196 0 .898Z" fill="#ffffff"/>
<path transform="matrix(1,0,0,-1,287.1805,336.8963)" d="M0 0C.054-.098 .088-.166 .088-.249 .088-.531-1.084-1.316-2.774-1.316-5.787-1.316-7.233 .58-7.233 4.577-7.233 8.404-5.754 10.653-2.774 10.653-1.481 10.653 .054 9.741 .054 9.423 .054 9.355 .054 9.291-.033 9.173L-.671 8.244C-.742 8.142-.811 8.073-.879 8.073-1.173 8.073-1.739 8.86-2.653 8.86-4.134 8.86-4.791 7.873-4.791 5.012-4.791 2.181-4.427 .484-2.653 .484-1.686 .484-1.068 1.1-.725 1.1-.655 1.1-.604 1.047-.534 .931Z" fill="#ffffff"/>
<path transform="matrix(1,0,0,-1,298.0155,330.5191)" d="M0 0C-.154 .648-.292 1.631-.375 2.333H-.411C-.48 1.631-.637 .662-.807 0L-1.567-2.865H.706ZM-2.53-7.058C-2.6-7.357-2.634-7.408-2.893-7.408H-4.633C-4.856-7.408-4.961-7.376-4.978-7.259-4.978-7.176-4.926-7.046-4.908-6.973L-1.513 3.743C-1.446 3.964-1.429 3.997-1.136 3.997H.657C.912 3.997 .947 3.925 1.019 3.731L4.395-7.007C4.412-7.078 4.462-7.208 4.462-7.279 4.462-7.376 4.29-7.408 4.12-7.408H2.19C2.019-7.408 1.986-7.357 1.896-7.058L1.138-4.364H-1.823Z" fill="#ffffff"/>
<path transform="matrix(1,0,0,-1,315.7256,337.62904)" d="M0 0C-.065-.266-.119-.298-.375-.298H-6.062C-6.356-.298-6.424-.247-6.424 .052V10.756C-6.424 11.056-6.356 11.107-6.062 11.107H-4.46C-4.169 11.107-4.101 11.056-4.101 10.756V1.695H.054C.294 1.695 .364 1.619 .364 1.482 .364 1.43 .347 1.333 .327 1.267Z" fill="#ffffff"/>
<path transform="matrix(1,0,0,-1,328.338,328.6054)" d="M0 0C-.053-.1-.121-.166-.191-.166-.292-.166-1.359 .568-2.6 .568-3.395 .568-4.222 .266-4.222-.733-4.222-1.998-2.206-2.232-.692-3.311 .189-3.944 .791-4.826 .791-6.091 .791-8.206-.762-9.607-2.928-9.607-4.689-9.607-6.528-8.875-6.528-8.609-6.528-8.557-6.479-8.44-6.445-8.34L-6.044-7.244C-6.011-7.139-5.925-7.074-5.857-7.074-5.756-7.074-4.481-7.807-3.001-7.807-2.033-7.807-1.446-7.308-1.446-6.277-1.446-4.794-3.206-4.645-4.964-3.609-5.878-3.078-6.461-2.413-6.461-1.031-6.461 1.367-4.67 2.362-2.67 2.362-1.037 2.362 .651 1.631 .651 1.35 .651 1.298 .637 1.232 .566 1.1Z" fill="#ffffff"/>
<path transform="matrix(1,0,0,-1,435.1404,264.3067)" d="M0 0C.788 0 1.494 .054 1.494 .966 1.494 1.702 .805 1.839 .156 1.839H-1.114V0ZM-1.114-3.335H-2.045V2.602H.299C1.749 2.602 2.471 2.081 2.471 .912 2.471-.149 1.779-.613 .877-.724L2.626-3.335H1.583L-.04-.763H-1.114ZM.014-4.658C2.427-4.658 4.327-2.833 4.327-.355 4.327 2.081 2.427 3.922 .014 3.922-2.42 3.922-4.323 2.081-4.323-.355-4.323-2.833-2.42-4.658 .014-4.658M-5.397-.355C-5.397 2.602-2.917 4.782 .014 4.782 2.921 4.782 5.402 2.602 5.402-.355 5.402-3.335 2.921-5.514 .014-5.514-2.917-5.514-5.397-3.335-5.397-.355" fill="#ffffff"/>
</g>
</g>
</svg>
