<svg xmlns="http://www.w3.org/2000/svg" xmlns:xlink="http://www.w3.org/1999/xlink" xmlns:inkscape="http://www.inkscape.org/namespaces/inkscape" version="1.1" width="447" height="84" viewBox="60 244 447 84">
<defs>
<clipPath id="clip_1">
<path transform="matrix(1,0,0,-1,0,566.929)" d="M0 566.929H566.929V0H0Z"/>
</clipPath>
</defs>
<g inkscape:groupmode="layer" inkscape:label="Calque 1">
<g clip-path="url(#clip_1)">
<path transform="matrix(1,0,0,-1,0,566.929)" d="M295.2 247.871H305.644V315.986H295.2ZM381.151 273.277 393.736 298.038 405.24 273.277ZM422.255 261.341 397.406 315.984H394.018L364.745 253.712 340.564 253.709V303.881C340.564 313.942 338.244 315.955 330.119 315.955H319.678V313.942H321.998C328.962 313.942 330.119 309.917 330.119 303.881V247.855H369.949L379.457 267.882H408.137L410.962 261.341C415.929 249.773 425.079 247.862 430.163 247.862 431.856 247.862 433.554 248.062 434.682 248.364V250.779C428.469 251.282 425.759 253.796 422.255 261.341M498.29 264.645C492.11 256.101 484.275 251.374 473.23 251.374 456.481 251.374 448.244 262.665 446.32 275.493 446.14 277.064 446.051 278.65 446.051 280.235 446.051 304.425 458.592 312.487 473.411 312.487 485.949 312.487 493.93 306.44 496.781 293.339H499.062C499.062 296.6 499.062 299.867 498.613 302.653 498.292 305.617 497.588 308.173 496.027 309.822 491.923 314.259 482.35 317.887 469.811 317.887 450.43 317.887 434.473 301.76 434.473 281.605 434.473 279.648 434.615 277.732 434.894 275.871 436.816 258.842 450.008 245.971 469.993 245.971 483.67 245.971 493.93 250.007 501.342 262.601ZM162.021 253.204H142.684V280.248H172.521V286.282H142.684V310.617H163.237C172.08 310.617 177.055 307.074 177.055 298.976H179.263V307.868C179.263 311.917 177.603 315.966 169.87 315.966H122.79V312.641H125.001C131.633 312.641 132.735 308.594 132.735 302.517V247.855H170.865C175.284 247.855 177.936 249.88 179.152 252.918L179.617 254.074 183.019 262.533 183.513 263.761 180.807 264.341C177.494 256.241 171.97 253.204 162.021 253.204M102.338 282.74 87.9 290.17C79.631 294.393 75.187 297.387 74.886 302.894 75.255 308.892 81.76 312.634 88.484 312.634 100.286 312.634 107.546 308.284 110.779 297.532H113.845V305.645C113.845 313.275 100.11 317.858 88.484 317.858 74.751 317.858 65.711 311.037 65.711 300.552 65.711 300.346 65.717 300.142 65.718 299.941 65.717 299.761 65.711 299.582 65.711 299.401 65.711 291.867 69.468 286.984 79.448 281.893L93.885 274.462C102.154 270.239 106.487 266.583 106.782 261.032 106.404 254.658 99.302 251.187 91.421 251.187 78.607 251.187 70.808 256.505 68.032 269.407H65.711V258.383C65.711 250.747 79.68 245.963 92.478 245.963 107.625 245.963 116.899 253.393 116.899 264.794 116.899 264.978 116.894 265.163 116.889 265.347 116.894 265.545 116.899 265.748 116.899 265.949 116.899 273.477 112.318 277.654 102.338 282.74M272.403 266.019V315.964H259.87L234.793 265.454 209.21 315.964H196.115V247.898H203.056V306.15L232.138 247.898H234.377L262.335 305.135V266.019C262.335 250.779 266.812 244.173 283.029 244.173V246.206C275.76 246.206 272.403 253.826 272.403 266.019"/>
</g>
</g>
</svg>
