<svg xmlns="http://www.w3.org/2000/svg" xmlns:xlink="http://www.w3.org/1999/xlink" xmlns:inkscape="http://www.inkscape.org/namespaces/inkscape" version="1.1" width="447" height="135" viewBox="58 244 447 135">
<defs>
<clipPath id="clip_1">
<path transform="matrix(1,0,0,-1,0,566.929)" d="M0 566.929H566.929V0H0Z"/>
</clipPath>
</defs>
<g inkscape:groupmode="layer" inkscape:label="Calque 1">
<g clip-path="url(#clip_1)">
<path transform="matrix(1,0,0,-1,0,566.929)" d="M293.522 247.77H303.98103V315.984H293.522ZM379.597 273.213 392.2 298.009 403.72 273.213ZM420.76 261.259 395.875 315.981H392.483L363.167 253.619 338.951 253.617V303.861C338.951 313.936 336.627 315.952 328.491 315.952H318.035V313.936H320.358C327.332 313.936 328.491 309.906 328.491 303.861V247.753H368.379L377.9 267.809H406.622L409.45 261.259C414.425 249.675 423.588 247.761 428.68 247.761 430.375 247.761 432.076 247.962 433.205 248.263V250.682C426.983 251.186 424.269 253.704 420.76 261.259M496.905 264.568C490.716 256.012 482.869 251.278 471.808 251.278 455.035 251.278 446.787 262.586 444.859 275.432 444.68 277.005 444.59 278.593 444.59 280.18 444.59 304.405 457.149 312.479 471.99 312.479 484.546 312.479 492.539 306.423 495.393 293.304H497.678C497.678 296.569 497.678 299.841 497.229 302.631 496.907 305.6 496.201 308.159 494.638 309.81 490.529 314.254 480.942 317.887 468.385 317.887 448.976 317.887 432.996 301.737 432.996 281.553 432.996 279.593 433.138 277.674 433.417 275.811 435.342 258.757 448.553 245.867 468.567 245.867 482.263 245.867 492.539 249.909 499.962 262.521ZM160.151 253.111H140.786V280.194H170.666V286.236H140.786V310.607H161.369C170.224 310.607 175.207 307.059 175.207 298.949H177.418V307.853C177.418 311.908 175.755 315.964 168.011 315.964H120.863V312.634H123.077C129.718 312.634 130.822 308.58 130.822 302.495V247.753H169.007C173.433 247.753 176.089 249.782 177.307 252.824L177.772 253.982 181.179 262.453 181.674 263.683 178.964 264.264C175.646 256.153 170.114 253.111 160.151 253.111M100.381 282.689 85.923 290.13C77.642 294.359 73.191 297.358 72.89 302.872 73.259 308.879 79.774 312.627 86.507 312.627 98.326 312.627 105.597 308.271 108.835 297.502H111.905V305.628C111.905 313.268 98.15 317.858 86.507 317.858 72.755 317.858 63.701 311.027 63.701 300.527 63.701 300.321 63.708 300.117 63.709 299.915 63.708 299.734 63.701 299.556 63.701 299.375 63.701 291.83 67.464 286.939 77.458 281.841L91.916 274.399C100.198 270.171 104.536 266.509 104.832 260.95 104.453 254.567 97.341 251.091 89.448 251.091 76.616 251.091 68.805 256.417 66.026 269.337H63.701V258.297C63.701 250.65 77.691 245.86 90.508 245.86 105.676 245.86 114.964 253.3 114.964 264.717 114.964 264.902 114.959 265.087 114.954 265.271 114.959 265.469 114.964 265.672 114.964 265.874 114.964 273.413 110.376 277.596 100.381 282.689M270.691 265.944V315.961H258.14L233.027 265.378 207.407 315.961H194.294V247.797H201.245V306.133L230.369 247.797H232.611L260.609 305.116V265.944C260.609 250.682 265.092 244.067 281.333 244.067V246.103C274.053 246.103 270.691 253.734 270.691 265.944"/>
<path transform="matrix(1,0,0,-1,194.5483,348.1263)" d="M0 0-7.551-15.963H7.51ZM8.536-18.138H-8.577L-11.531-24.458C-11.736-24.909-12.106-25.156-12.639-25.156-13.583-25.156-14.199-24.171-13.747-23.35L-1.108 3.365C-.903 3.816-.533 4.021 0 4.021 .493 4.021 .862 3.816 1.108 3.365L13.747-23.35C14.199-24.171 13.583-25.156 12.639-25.156 12.106-25.156 11.736-24.909 11.531-24.458Z" fill="#231f20"/>
<path transform="matrix(1,0,0,-1,228.811,368.52174)" d="M0 0C.205 .287 .493 .41 .862 .41 1.559 .41 2.134-.164 2.134-.862 2.134-1.231 2.011-1.559 1.765-1.805-.246-3.775-2.749-4.76-5.663-4.76-8.577-4.76-11.039-3.775-13.091-1.764-15.142 .246-16.168 2.749-16.168 5.745-16.168 8.741-15.142 11.244-13.132 13.214-11.08 15.225-8.577 16.21-5.663 16.21-2.503 16.21 0 15.225 1.765 13.296 2.011 13.009 2.134 12.68 2.134 12.352 2.134 11.654 1.559 11.08 .862 11.08 .493 11.08 .205 11.203 0 11.49-1.354 13.091-3.242 13.87-5.663 13.87-7.797 13.87-9.643 13.091-11.203 11.573-12.721 10.054-13.501 8.084-13.501 5.745-13.501 3.406-12.721 1.436-11.203-.082-9.643-1.6-7.797-2.38-5.663-2.38-3.242-2.38-1.354-1.6 0 0" fill="#231f20"/>
<path transform="matrix(1,0,0,-1,251.256,363.14595)" d="M0 0V.205H-2.873C-6.484 .205-8.905-.082-10.177-.657-11.408-1.19-12.024-2.216-12.024-3.693-12.024-5.95-10.218-7.92-6.771-7.92-2.791-7.92-.123-4.76 0 0M-5.704 10.834C-.246 10.834 2.462 8.248 2.462 2.298V-8.905C2.462-9.561 1.929-10.136 1.231-10.136 .533-10.136 0-9.561 0-8.905V-6.566C-1.683-8.946-4.063-10.136-7.181-10.136-9.521-10.136-11.326-9.479-12.598-8.166-13.87-6.853-14.486-5.376-14.486-3.693-14.486-1.559-13.624-.041-11.942 .903-10.218 1.847-7.181 2.298-2.873 2.298H0C0 4.842-.493 6.525-1.436 7.346-2.38 8.207-3.816 8.618-5.704 8.618-7.797 8.618-9.438 8.125-10.711 7.141-11.901 6.197-13.706 7.674-12.393 8.741-10.793 10.136-8.577 10.834-5.704 10.834" fill="#231f20"/>
<path transform="matrix(1,0,0,-1,265.3293,357.0313)" d="M0 0C-1.436-1.518-2.175-3.447-2.175-5.745-2.175-8.043-1.436-9.972 0-11.531 1.436-13.091 3.078-13.87 4.883-13.87 9.315-13.87 11.613-10.711 11.613-5.745 11.613-.78 9.315 2.339 4.883 2.339 3.078 2.339 1.436 1.559 0 0M14.075-14.978C14.075-16.579 11.613-16.579 11.613-14.978V-12.762C10.013-15.06 7.592-16.21 4.432-16.21 2.093-16.21-.041-15.184-1.97-13.173-3.899-11.162-4.842-8.659-4.842-5.745-4.842-2.832-3.899-.328-1.97 1.683-.041 3.693 2.093 4.719 4.432 4.719 7.592 4.719 10.013 3.57 11.613 1.272V13.788C11.613 14.445 12.147 15.019 12.844 15.019 13.542 15.019 14.075 14.445 14.075 13.788Z" fill="#231f20"/>
<path transform="matrix(1,0,0,-1,297.2125,348.2907)" d="M0 0C-.246-.287-.533-.451-.903-.451-1.888-.451-2.257 .821-1.764 1.313L1.313 5.745C1.518 6.032 1.806 6.156 2.175 6.156 2.79 6.156 3.283 5.663 3.283 5.048 3.283 4.76 3.201 4.555 3.078 4.391ZM6.073-13.419C5.704-9.192 2.955-6.361-.944-6.361-2.873-6.361-4.555-7.017-5.95-8.33-7.305-9.643-8.125-11.326-8.33-13.419ZM-8.33-15.512C-7.879-19.779-4.801-22.611-.533-22.611 1.436-22.611 3.324-21.831 5.171-20.231 5.458-20.026 5.745-19.903 5.991-19.903 6.689-19.903 7.263-20.477 7.263-21.175 7.263-21.544 7.14-21.872 6.894-22.119 4.924-24.047 2.462-24.991-.533-24.991-3.611-24.991-6.115-24.006-8.084-22.036-10.054-20.026-11.039-17.522-11.039-14.486-11.039-11.49-10.095-8.987-8.166-7.017-6.237-5.006-3.816-4.021-.903-4.021 1.929-4.021 4.268-5.006 6.073-6.976 7.92-8.905 8.823-11.408 8.823-14.404 8.823-15.06 8.166-15.512 7.51-15.512Z" fill="#231f20"/>
<path transform="matrix(1,0,0,-1,315.2662,372.0509)" d="M0 0C0-.656-.533-1.231-1.231-1.231-1.929-1.231-2.462-.656-2.462 0V18.508C-2.462 20.108 0 20.108 0 18.508V16.169C1.601 18.549 4.022 19.739 7.181 19.739 10.67 19.739 13.009 18.179 14.117 15.061 15.717 18.179 18.426 19.739 22.16 19.739 27.372 19.739 29.957 16.251 29.957 9.274V0C29.957-.656 29.423-1.231 28.726-1.231 28.028-1.231 27.495-.656 27.495 0V9.274C27.495 15.02 25.812 17.441 21.709 17.441 19.657 17.441 18.015 16.661 16.784 15.143 15.594 13.624 14.978 11.696 14.978 9.274V0C14.978-.656 14.445-1.231 13.747-1.231 13.05-1.231 12.516-.656 12.516 0V9.274C12.516 15.02 10.834 17.441 6.73 17.441 4.678 17.441 3.037 16.661 1.806 15.143 .616 13.624 0 11.696 0 9.274Z" fill="#231f20"/>
<path transform="matrix(1,0,0,-1,353.9191,353.5434)" d="M0 0C0 1.601 2.462 1.601 2.462 0V-18.508C2.462-19.164 1.929-19.738 1.231-19.738 .533-19.738 0-19.164 0-18.508ZM.164 8.207C.78 8.741 1.724 8.741 2.257 8.207 2.79 7.674 2.79 6.73 2.257 6.115 1.724 5.581 .78 5.581 .164 6.115-.369 6.73-.369 7.674 .164 8.207" fill="#231f20"/>
<path transform="matrix(1,0,0,-1,380.2636,361.7096)" d="M0 0C-.369 4.227-3.119 7.058-7.017 7.058-8.946 7.058-10.628 6.402-12.024 5.089-13.378 3.775-14.199 2.093-14.404 0ZM-14.404-2.093C-13.952-6.361-10.875-9.192-6.607-9.192-4.637-9.192-2.749-8.412-.903-6.812-.615-6.607-.328-6.484-.082-6.484 .616-6.484 1.19-7.058 1.19-7.756 1.19-8.125 1.067-8.453 .821-8.7-1.149-10.628-3.611-11.572-6.607-11.572-9.684-11.572-12.188-10.587-14.157-8.617-16.127-6.607-17.112-4.104-17.112-1.067-17.112 1.929-16.168 4.432-14.24 6.402-12.311 8.412-9.89 9.397-6.976 9.397-4.145 9.397-1.805 8.412 0 6.443 1.847 4.514 2.749 2.011 2.749-.985 2.749-1.641 2.093-2.093 1.436-2.093Z" fill="#231f20"/>
</g>
</g>
</svg>
