<svg xmlns="http://www.w3.org/2000/svg" xmlns:xlink="http://www.w3.org/1999/xlink" xmlns:inkscape="http://www.inkscape.org/namespaces/inkscape" version="1.1" width="492" height="153" viewBox="42 226 492 153">
<defs>
<clipPath id="clip_1">
<path transform="matrix(1,0,0,-1,0,566.929)" d="M0 566.929H566.929V0H0Z"/>
</clipPath>
</defs>
<g inkscape:groupmode="layer" inkscape:label="Calque 1">
<g clip-path="url(#clip_1)">
<path transform="matrix(1,0,0,-1,0,566.929)" d="M269.017 267.709H279.117V333.58003H269.017ZM352.136 292.278 364.306 316.223 375.431 292.278ZM391.886 280.735 367.855 333.578H364.579L336.271 273.358 312.886 273.355V321.874C312.886 331.604 310.642 333.55 302.785 333.55H292.688V331.604H294.931C301.666 331.604 302.785 327.711 302.785 321.874V267.693H341.303L350.497 287.061H378.233L380.964 280.735C385.768 269.549 394.616 267.701 399.533 267.701 401.171 267.701 402.813 267.894 403.903 268.186V270.521C397.895 271.008 395.274 273.44 391.886 280.735M465.416 283.93C459.439 275.668 451.862 271.097 441.181 271.097 424.984 271.097 417.019 282.016 415.157 294.421 414.984 295.941 414.897 297.474 414.897 299.007 414.897 322.4 427.026 330.196 441.357 330.196 453.481 330.196 461.199 324.348 463.956 311.68H466.162C466.162 314.833 466.162 317.992 465.729 320.686 465.418 323.553 464.737 326.025 463.227 327.619 459.259 331.91 450.001 335.418 437.875 335.418 419.133 335.418 403.701 319.823 403.701 300.332 403.701 298.44 403.838 296.587 404.108 294.787 405.967 278.319 418.725 265.872 438.051 265.872 451.277 265.872 461.199 269.775 468.368 281.954ZM140.225 272.867H121.525V299.02H150.379V304.855H121.525V328.389H141.401C149.952 328.389 154.764 324.962 154.764 317.131H156.899V325.729C156.899 329.645 155.294 333.561 147.815 333.561H102.286V330.346H104.424C110.838 330.346 111.904 326.432 111.904 320.555V267.693H148.777C153.051 267.693 155.616 269.652 156.792 272.59L157.241 273.708 160.531 281.889 161.009 283.076 158.392 283.637C155.188 275.804 149.846 272.867 140.225 272.867M82.508 301.429 68.546 308.615C60.55 312.698 56.252 315.594 55.96 320.92 56.317 326.72 62.608 330.339 69.111 330.339 80.524 330.339 87.545 326.133 90.671 315.734H93.636V323.58C93.636 330.958 80.354 335.391 69.111 335.391 55.83 335.391 47.088 328.794 47.088 318.655 47.088 318.456 47.094 318.258 47.095 318.064 47.094 317.889 47.088 317.717 47.088 317.542 47.088 310.256 50.721 305.534 60.372 300.61L74.334 293.424C82.331 289.341 86.52 285.805 86.805 280.437 86.44 274.273 79.572 270.916 71.951 270.916 59.559 270.916 52.016 276.059 49.332 288.535H47.088V277.875C47.088 270.49 60.596 265.865 72.973 265.865 87.62 265.865 96.59 273.049 96.59 284.075 96.59 284.253 96.585 284.431 96.58 284.609 96.585 284.801 96.59 284.997 96.59 285.192 96.59 292.472 92.159 296.511 82.508 301.429M246.97 285.259V333.559H234.85L210.599 284.713 185.859 333.559H173.196V267.736H179.908V324.068L208.032 267.736H210.197L237.234 323.087V285.259C237.234 270.521 241.563 264.133 257.246 264.133V266.099C250.216 266.099 246.97 273.469 246.97 285.259"/>
<path transform="matrix(1,0,0,-1,319.4404,309.90434)" d="M0 0C.936-2.288 2.418-4.351 3.734-6.106L4.164-6.68 4.795-6.338C8.095-4.546 11.537-2.921 15.026-1.506L15.334-1.381 15.471-1.078C17.052 2.415 18.926 6.163 21.369 10.715 21.761 11.451 22.137 12.2 22.534 12.993 24.439 16.79 26.408 20.716 29.897 22.499 30.331 22.715 30.82 22.831 31.307 22.831 32.415 22.831 33.634 22.208 33.857 20.815 34.208 18.776 33.109 16.991 31.945 15.1 31.72 14.736 31.497 14.373 31.285 14.01 30.122 11.974 29.053 9.933 28.019 7.959 27.254 6.621 26.567 5.15 25.903 3.727L25.117 2.043 26.894 2.576C39.185 6.292 51.863 8.176 64.574 8.176H65.314L65.4 8.91C66.366 17.223 60.915 25.166 52.144 28.226 49.137 29.265 45.769 29.791 42.133 29.791 32.372 29.791 22.937 26.037 18.181 23.799 11.538 20.64-2.93 12.429-.453 1.854L-.837 2.047ZM3.607-15.105C-1.981-18.268-6.674-21.821-10.339-25.666-12.917-28.386-14.201-31.43-13.864-34.017-13.598-36.064-12.389-37.767-10.27-39.076-8.538-40.139-6.121-40.654-2.88-40.654H-2.879C-1.388-40.654 .079-40.546 1.317-40.439 9.212-39.838 17.505-37.183 26.661-32.322 34.636-28.05 42.09-22.573 48.82-16.042L50.29-14.615H50.064C54.584-10.046 58.041-5.791 60.601-1.65L61.384-.383H59.894C46.902-.383 34.244-2.52 22.271-6.734L20.48-7.449 16.908-16.083C16.59-16.867 16.29-17.664 15.972-18.508 14.66-21.992 13.303-25.594 10.888-27.935 10.293-28.531 9.432-28.94 8.785-28.94 8.329-28.94 8.028-28.753 7.808-28.335 6.935-26.747 7.3-24.75 7.653-22.82L7.699-22.567C7.744-22.302 7.81-22.039 7.879-21.762 7.953-21.464 8.03-21.156 8.083-20.836L8.124-20.59 8.023-20.362C7.284-18.699 6.178-17.037 4.642-15.28L4.196-14.771ZM-4.397-49.5C-7.558-49.5-10.534-49.117-13.24-48.363-18.665-46.875-22.466-41.479-22.28-35.53-22.131-29.957-18.846-24.34-12.237-18.354-9.215-15.591-5.72-12.932-1.548-10.22L-.688-9.661-1.414-8.936C-2.335-8.015-3.033-7.201-3.613-6.373-7.294-1.237-7.477 4.999-4.135 11.191-1.076 16.88 3.953 21.962 10.812 26.297 18.041 30.867 25.617 33.525 30.699 34.951L32.066 35.335 31.983 35.418C37.372 36.819 42.471 37.528 47.157 37.528 55.932 37.528 62.879 35.029 67.807 30.101 72.044 25.865 74.115 20.545 73.964 14.292 73.832 8.872 72.023 3.062 68.73-2.51 63.321-11.725 55.609-20.549 46.426-28.031 37.455-35.34 27.281-41.223 17.004-45.041 9.087-48 1.887-49.5-4.397-49.5" fill="#eb078c"/>
<path transform="matrix(1,0,0,-1,328.2252,339.67503)" d="M0 0C.955 0 2.014 .571 2.682 1.239 5.834 4.296 7.267 9.358 8.891 13.37 10.037 16.14 11.183 18.91 12.329 21.68 12.807 21.871 13.284 22.062 13.762 22.253 25.701 26.456 38.405 28.557 51.109 28.557 47.861 23.304 43.563 18.528 39.265 14.325H39.456C32.961 8.021 25.511 2.481 17.487-1.817 9.75-5.925 1.249-9.172-7.538-9.841-8.773-9.947-10.203-10.052-11.664-10.052-14.161-10.052-16.751-9.744-18.618-8.599-23.872-5.351-21.961-.098-18.523 3.532-14.607 7.639-9.831 11.078-4.768 13.943-3.431 12.415-2.285 10.791-1.521 9.072-1.616 8.498-1.807 7.925-1.903 7.352-2.285 5.251-2.762 2.959-1.712 1.048-1.314 .292-.683 0 0 0M-7.825 29.99C-12.314 40.497 1.918 49.093 9.75 52.818 16.642 56.062 25.206 58.731 33.348 58.731 36.715 58.731 40.011 58.274 43.086 57.212 51.3 54.347 56.744 46.992 55.789 38.777 42.894 38.777 30.191 36.867 17.869 33.142 18.538 34.575 19.206 36.007 19.971 37.345 21.021 39.35 22.072 41.357 23.218 43.362 24.555 45.655 26.37 47.947 25.893 50.717 25.615 52.454 24.123 53.433 22.522 53.433 21.922 53.433 21.307 53.296 20.734 53.01 16.245 50.717 14.144 45.177 11.851 40.879 9.75 36.963 7.744 33.047 5.929 29.035 2.395 27.602-1.043 25.978-4.386 24.163-5.819 26.074-7.156 27.984-8.016 30.085ZM38.372 68.13C32.629 68.13 26.796 67.069 21.594 65.618L21.69 65.522C8.413 61.797-6.87 53.965-13.651 41.357-16.899 35.339-17.186 28.653-13.078 22.922-12.41 21.967-11.646 21.107-10.786 20.247-14.607 17.764-18.236 15.089-21.579 12.033-26.642 7.448-31.704 1.43-31.895-5.733-32.086-11.847-28.17-17.768-22.248-19.392-19.321-20.208-16.272-20.56-13.182-20.56-5.784-20.56 1.838-18.542 8.508-16.049 29.331-8.312 49.39 7.639 60.661 26.838 66.869 37.345 69.066 51.003 59.61 60.46 53.925 66.144 46.233 68.13 38.372 68.13M0 1.662C-.127 1.662-.157 1.662-.241 1.822L-.249 1.836-.256 1.849C-.98 3.165-.641 5.014-.314 6.802L-.268 7.055-.266 7.067-.264 7.079C-.227 7.3-.165 7.547-.1 7.809-.021 8.122 .06 8.446 .118 8.798L.2 9.29-.002 9.746C-.776 11.487-1.926 13.218-3.518 15.037L-4.409 16.056-5.587 15.389C-11.246 12.186-16.003 8.582-19.729 4.674-22.477 1.773-23.842-1.517-23.473-4.353-23.267-5.94-22.408-8.209-19.487-10.016-17.622-11.158-15.063-11.714-11.664-11.714-10.141-11.714-8.652-11.604-7.412-11.498 .606-10.887 9.006-8.201 18.272-3.282 26.312 1.025 33.829 6.548 40.613 13.133L43.554 15.987H43.246C47.144 20.07 50.196 23.92 52.523 27.683L54.09 30.219H51.109C38.023 30.219 25.272 28.066 13.21 23.821L13.177 23.809 13.144 23.796 11.713 23.223 11.062 22.963 10.794 22.315 9.074 18.16 7.35 13.993C7.031 13.206 6.729 12.404 6.409 11.555 5.13 8.157 3.806 4.644 1.525 2.432L1.516 2.423 1.507 2.414C1.085 1.992 .423 1.662 0 1.662M-10.317 33.092-11.227 33.547-9.554 29.456C-8.581 27.077-7.062 24.962-5.716 23.166L-4.855 22.018-3.594 22.703C-.32 24.48 3.094 26.092 6.554 27.495L7.17 27.744 7.443 28.35C9.016 31.825 10.882 35.557 13.318 40.097 13.714 40.84 14.11 41.629 14.492 42.392 16.336 46.069 18.243 49.871 21.477 51.523 21.802 51.686 22.164 51.771 22.522 51.771 23.223 51.771 24.096 51.427 24.252 50.455L24.253 50.445 24.255 50.435C24.551 48.715 23.532 47.06 22.453 45.307 22.231 44.947 22.001 44.574 21.775 44.187 20.617 42.16 19.547 40.118 18.512 38.142 17.722 36.756 17.034 35.282 16.363 33.845L14.79 30.475 18.35 31.551C30.563 35.244 43.159 37.116 55.789 37.116H57.269L57.44 38.585C57.95 42.974 56.842 47.252 54.235 50.957 51.754 54.483 47.988 57.262 43.628 58.783 40.536 59.851 37.077 60.393 33.348 60.393 23.426 60.393 13.861 56.589 9.036 54.319 2.54 51.229-11.213 43.422-10.317 33.092M38.374 66.468C46.919 66.468 53.669 64.051 58.435 59.285 62.505 55.215 64.494 50.1 64.348 44.083 64.22 38.804 62.45 33.133 59.228 27.679 53.869 18.551 46.223 9.804 37.117 2.384 28.215-4.869 18.123-10.704 7.927-14.493 .105-17.416-6.997-18.898-13.182-18.898-16.268-18.898-19.168-18.526-21.808-17.79-24.26-17.118-26.458-15.523-27.998-13.3-29.523-11.099-30.317-8.43-30.234-5.778-30.092-.447-26.896 4.976-20.458 10.806-17.474 13.535-14.014 16.167-9.88 18.854L-8.16 19.972-9.611 21.422C-10.497 22.308-11.166 23.087-11.717 23.874L-11.722 23.882-11.728 23.89C-15.208 28.746-15.372 34.669-12.188 40.569-9.197 46.13-4.265 51.108 2.471 55.366 9.615 59.881 17.11 62.511 22.139 63.922L24.872 64.689 24.823 64.739C29.621 65.887 34.168 66.468 38.373 66.468Z" fill="#ffffff"/>
<path transform="matrix(1,0,0,-1,401.5912,322.29353)" d="M0 0C-.287-.382-.095-.191 .095 0ZM2.483-5.349C3.821-3.725 5.158-2.006 6.495-.287 6.304 0 6.113 .287 5.922 .573 5.253 1.624 4.967 2.483 3.916 3.248 4.203 3.057 3.248 3.534 3.152 3.63 3.057 3.534 2.865 3.343 2.77 3.248 2.675 3.152 2.579 3.057 2.483 2.961 1.91 2.388 1.433 1.815 .955 1.242 .668 .86 .382 .478 .095 .096 0 0 0 0 0-.095-.478-.669-.955-1.242-1.337-1.815-2.197-3.057-2.961-4.298-3.725-5.635-3.725-5.731-4.012-6.208-4.107-6.4-4.203-6.59-4.394-6.973-4.394-7.068-4.68-7.737-4.967-8.405-5.253-9.074-5.827-10.411-6.304-11.748-6.782-13.086-7.355-14.71-8.119-16.333-8.501-17.957V-18.148C-8.119-17.766-7.737-17.384-7.355-17.002-6.208-15.76-5.062-14.518-4.012-13.277-1.719-10.602 .478-7.928 2.675-5.253ZM35.341 6.209C35.819 6.686 37.06 7.164 37.156 6.018 37.347 4.585 36.487 3.248 35.819 2.006 35.15 .669 34.577-.669 33.908-1.91 32.476-4.68 30.757-7.355 29.133-10.029 26.267-14.614 23.402-19.103 19.008-22.351 17.766-23.21 16.429-23.975 15.092-24.548 15.283-24.452 16.047-23.975 14.805-24.643 14.232-24.93 13.755-25.121 13.181-25.312 12.322-25.598 11.367-25.694 10.411-25.694 6.973-25.503 4.68-22.924 3.916-19.772 3.343-17.097 3.725-14.041 4.203-11.367 4.298-10.698 4.489-10.029 4.68-9.36 4.585-9.456 4.489-9.552 4.394-9.647 2.102-12.799-.095-16.047-2.483-19.103-4.871-22.16-7.164-25.789-11.175-26.84-15.569-27.986-18.53-24.07-18.244-19.963-18.053-16.715-16.811-13.372-15.665-10.411-13.181-4.012-9.743 2.006-5.158 7.164-2.579 10.029 .478 12.895 4.298 13.755 7.737 14.519 11.462 13.277 13.659 10.507 13.755 10.316 13.85 10.125 13.945 9.934 14.518 10.889 15.092 11.844 15.76 12.799 17.193 14.901 20.25 17.098 22.924 15.951 25.503 14.805 25.217 11.367 23.879 9.361 22.255 6.877 20.536 4.394 19.008 1.815 17.48-.86 16.715-2.197 15.569-5.349 15.283-6.017 15.092-6.686 14.901-7.355 14.805-7.641 14.805-7.737 14.805-7.832 14.71-8.119 14.614-8.405 14.518-8.692 14.232-10.125 14.041-11.557 13.945-12.99V-13.181-14.041C14.041-14.327 14.041-14.518 14.041-14.518 14.137-14.71 14.232-14.9 14.328-15.092L14.423-15.187C14.518-15.187 14.518-15.187 14.614-15.283 14.901-15.378 15.187-15.474 15.474-15.569 14.805-15.378 14.996-15.474 16.047-15.76 16.525-15.569 17.002-15.283 17.384-14.996 17.766-14.805 19.103-13.754 19.581-13.372 21.587-11.557 23.306-9.456 25.025-7.355 26.84-5.062 28.655-2.77 30.374-.477 31.234 .764 32.189 1.91 32.953 3.152 33.717 4.394 34.29 5.827 35.341 6.782Z" fill="#eb078c"/>
<path transform="matrix(1,0,0,-1,405.3189,318.06465)" d="M0 0 .011-.011C.007-.007 .004-.004 0 0M-7.291-11.416V-11.467L-8.217-13.63C-8.783-14.95-9.263-16.294-9.727-17.594-9.914-18.126-10.124-18.661-10.328-19.181-9.656-18.444-8.993-17.701-8.374-16.969-6.951-15.309-5.551-13.632-4.177-11.97L-4.37-12.067-1.886-9.05C-.67-7.573 .553-6.008 1.744-4.478L1.503-4.116C1.319-3.827 1.169-3.566 1.026-3.315 .662-2.678 .39-2.204-.151-1.767-.251-1.733-.351-1.69-.446-1.644L-.657-1.855C-1.165-2.363-1.591-2.868-2.034-3.398H-1.627L-3.045-4.816C-3.064-4.835-3.086-4.857-3.11-4.881-3.558-5.419-4.02-5.975-4.374-6.505-5.15-7.626-5.882-8.794-6.679-10.185-6.735-10.346-6.834-10.529-6.982-10.797-7.026-10.877-7.067-10.95-7.092-11.001-7.189-11.195-7.256-11.334-7.291-11.416M-13.06-24.382V-22.089L-13.038-21.995C-12.769-20.856-12.327-19.729-11.9-18.638-11.693-18.112-11.48-17.567-11.293-17.038-10.819-15.711-10.331-14.343-9.745-12.975L-8.921-11.052C-8.874-10.867-8.77-10.64-8.579-10.259-8.546-10.192-8.494-10.097-8.437-9.994-8.395-9.919-8.328-9.797-8.284-9.71V-9.644L-8.174-9.452C-7.332-7.979-6.562-6.745-5.748-5.571-5.414-5.069-5.01-4.568-4.604-4.079-4.555-3.971-4.486-3.855-4.393-3.73L-4.143-3.398H-4.12L-3.411-2.455C-2.923-1.87-2.428-1.276-1.832-.68L-.577 .575-.038 .038C.089-.038 .412-.204 .502-.24 .192-.116-.275-.23-.49-.631-.497-.643-.502-.655-.508-.667L.012-1.187-.379-1.578C-.354-1.605-.328-1.63-.3-1.652L.649-.29C.675-.307 .7-.325 .723-.343 1.624-1.013 2.053-1.764 2.468-2.49 2.599-2.72 2.736-2.959 2.895-3.21L3.79-4.553 3.423-5.025C2.879-5.726 2.326-6.436 1.77-7.144L2.063-6.998-.411-10.01C-2.586-12.658-4.817-15.373-7.108-18.046-8.157-19.286-9.317-20.543-10.439-21.759L-10.495-21.819ZM11.97-19.138 11.545-20.51C11.808-20.447 12.061-20.252 12.154-19.931 12.181-19.837 12.191-19.745 12.187-19.657L12.011-19.217C12.017-19.215 12.023-19.212 12.028-19.21 12.01-19.185 11.99-19.161 11.97-19.138M11.038-28.13C10.919-28.356 10.893-28.656 11.047-28.929 11.174-29.157 11.383-29.289 11.596-29.335ZM2.629 8.921C2.004 8.921 1.375 8.853 .751 8.715-2.914 7.89-5.865 5.049-8.268 2.379-12.541-2.428-16.024-8.256-18.618-14.941-19.846-18.114-20.964-21.213-21.142-24.241-21.287-26.316-20.518-28.312-19.135-29.459-18.023-30.382-16.633-30.661-15.113-30.265-11.885-29.419-9.795-26.668-7.775-24.006-7.471-23.606-7.169-23.209-6.866-22.821-5.284-20.796-3.756-18.643-2.278-16.562-1.524-15.5-.771-14.438-.006-13.387L.079-13.288 2.636-10.723 1.751-13.817C1.563-14.477 1.385-15.099 1.297-15.713 .864-18.141 .444-21.228 1.001-23.827 1.585-26.235 3.394-28.896 6.707-29.092 7.699-29.09 8.511-28.979 9.19-28.753 9.761-28.563 10.2-28.382 10.706-28.129 11.205-27.86 11.501-27.7 11.758-27.684 12.766-27.199 13.807-26.589 14.807-25.896 19.164-22.676 22.106-17.97 24.7-13.818 25.048-13.245 25.405-12.664 25.763-12.082 27.028-10.026 28.335-7.899 29.443-5.758 29.838-5.024 30.19-4.275 30.564-3.482 30.818-2.942 31.075-2.397 31.348-1.852 31.435-1.688 31.514-1.546 31.592-1.403 32.148-.395 32.722 .647 32.61 1.636 32.478 1.59 32.308 1.5 32.201 1.392L30.783-.026V-.008C30.714-.131 30.646-.255 30.578-.381 30.373-.754 30.162-1.14 29.933-1.512 29.447-2.303 28.885-3.057 28.341-3.787 28.004-4.24 27.656-4.709 27.33-5.179 25.58-7.514 23.734-9.845 21.949-12.099 20.231-14.2 18.462-16.361 16.411-18.217L16.372-18.25C15.851-18.666 14.629-19.63 14.105-19.927 13.638-20.271 13.116-20.565 12.628-20.76L12.369-20.864 12.1-20.79C11.466-20.617 11.103-20.519 10.883-20.386L10.454-20.244 10.374-20.242 9.918-19.813 9.483-18.943V-18.75C9.482-18.75 9.473-18.662 9.43-18.533L9.387-18.405 9.389-17.164C9.486-15.701 9.684-14.219 9.976-12.758L10.003-12.658 10.251-11.911C10.263-11.757 10.296-11.591 10.379-11.338 10.57-10.669 10.768-9.977 11.068-9.272 12.234-6.07 13.012-4.709 14.557-2.003 15.687-.098 16.92 1.759 18.113 3.555 18.564 4.233 19.014 4.91 19.456 5.587 20.227 6.743 20.52 8.282 20.189 9.423 19.979 10.146 19.532 10.664 18.859 10.964 16.625 11.92 13.922 9.867 12.719 8.102 12.059 7.16 11.485 6.203 10.93 5.278L10.152 3.979 9.227 5.827C7.628 7.801 5.174 8.921 2.629 8.921M-16.414-32.1C-17.809-32.1-19.113-31.637-20.197-30.738-21.984-29.256-22.981-26.725-22.8-24.134-22.609-20.876-21.445-17.642-20.167-14.34-17.501-7.47-13.915-1.472-9.507 3.487-6.925 6.355-3.734 9.409 .388 10.337 4 11.138 7.777 9.935 10.188 7.261 10.551 7.851 10.933 8.449 11.352 9.047 13.124 11.647 16.595 13.742 19.523 12.486 20.659 11.982 21.437 11.084 21.785 9.885 22.252 8.276 21.882 6.23 20.843 4.671 20.402 3.997 19.951 3.317 19.497 2.635 18.316 .857 17.095-.981 15.995-2.838 14.498-5.457 13.744-6.777 12.622-9.862L12.605-9.905C12.339-10.526 12.161-11.15 11.972-11.812L11.961-11.847C11.914-11.988 11.908-12.033 11.908-12.035V-12.169L11.866-12.324 11.595-13.134C11.325-14.499 11.141-15.882 11.049-17.247V-18.145C11.089-18.29 11.113-18.416 11.126-18.516L11.231-18.724C11.256-18.74 11.281-18.757 11.306-18.776L12.009-19.01 12.001-19.036C12.073-19.057 12.158-19.082 12.256-19.109 12.558-18.965 12.876-18.772 13.158-18.56L13.284-18.482C13.49-18.378 14.38-17.715 15.315-16.968 17.266-15.199 18.989-13.094 20.654-11.058 22.425-8.822 24.263-6.499 25.982-4.208 26.306-3.739 26.663-3.259 27.009-2.795 27.554-2.062 28.07-1.369 28.518-.641 28.725-.305 28.917 .046 29.12 .417 29.651 1.387 30.201 2.392 31.055 3.168L32.444 4.431V3.304C32.727 3.351 33.02 3.339 33.302 3.236 33.846 3.037 34.193 2.543 34.254 1.879 34.451 .343 33.706-1.01 33.048-2.204 32.971-2.343 32.896-2.481 32.822-2.617 32.567-3.128 32.316-3.662 32.068-4.19 31.701-4.968 31.322-5.773 30.912-6.533 29.783-8.717 28.459-10.87 27.179-12.952 26.822-13.532 26.467-14.11 26.115-14.689 23.436-18.976 20.406-23.824 15.774-27.248 14.404-28.197 13.037-28.963 11.691-29.54L11.671-29.497C11.613-29.528 11.547-29.563 11.471-29.604 10.868-29.906 10.366-30.112 9.716-30.329 8.859-30.615 7.867-30.754 6.684-30.754L6.638-30.752C3.094-30.555 .314-28.043-.619-24.196-1.115-21.882-.934-19.319-.61-17.082-.714-17.229-.819-17.376-.923-17.523-2.412-19.62-3.951-21.789-5.557-23.844-5.855-24.226-6.152-24.617-6.451-25.011-8.541-27.763-10.909-30.882-14.692-31.872-15.276-32.025-15.852-32.1-16.414-32.1" fill="#ffffff"/>
<path transform="matrix(1,0,0,-1,441.0402,353.5274)" d="M0 0C2.675 4.107 5.063 8.405 7.259 12.799 3.916 9.552 .764 6.208-1.91 2.483-3.63 .095-5.253-2.483-6.304-5.253-6.877-6.591-7.259-7.928-7.259-9.361V-9.743C-6.59-9.074-5.922-8.405-5.349-7.737-4.394-6.686-5.062-7.546-4.203-6.4-3.725-5.731-3.247-5.062-2.77-4.394-1.815-2.961-.86-1.528 .096-.095ZM44.033 40.404C46.326 41.072 45.562 37.538 44.033 36.965 36.488 34.195 29.419 30.279 22.828 25.598 21.3 21.587 19.581 17.671 17.766 13.85 13.468 4.776 8.501-4.203 1.719-11.653-.573-14.232-3.247-16.715-6.4-18.148-10.602-20.058-14.232-17.862-14.423-13.181-14.71-6.495-10.22 .287-6.304 5.349-2.006 10.984 3.152 15.856 8.597 20.441 9.743 21.396 10.889 22.351 12.035 23.306 13.181 26.267 14.328 29.324 15.283 32.476 15.187 32.38 15.092 32.189 14.996 32.094 12.704 28.082 10.22 24.07 7.164 20.632 5.063 18.148 1.91 16.047-1.337 15.474-3.725 15.092-6.113 15.474-7.45 17.671-8.214 18.912-8.405 20.25-8.405 21.682-8.597 27.413-7.259 33.049-5.158 38.398-3.247 43.269-.86 47.854 2.388 51.866 3.916 53.776 7.546 55.018 9.552 53.107 11.749 51.006 10.125 47.758 8.597 45.848 10.029 47.567 8.883 46.135 8.597 45.753 8.31 45.37 8.119 44.988 7.928 44.606 7.355 43.747 6.877 42.792 6.4 41.836V42.123C6.4 42.027 6.304 41.932 6.209 41.836 6.113 41.645 6.113 41.645 6.209 41.741V41.454C5.922 40.881 5.636 40.308 5.349 39.735 4.872 38.589 4.394 37.443 4.012 36.297 3.63 35.15 3.248 34.004 2.866 32.858V32.476 32.189C2.77 31.712 2.675 31.234 2.579 30.757 2.388 29.61 2.197 28.464 2.102 27.318 2.006 26.745 2.006 26.172 2.006 25.598V25.407 25.598 25.312 25.217 24.93C2.006 24.834 2.102 24.166 2.102 23.688H2.197 2.77C2.866 23.688 3.152 23.784 3.152 23.784 3.63 24.07 3.343 23.879 3.63 24.07 3.821 24.166 4.012 24.261 4.203 24.357H4.298C4.872 24.93 5.445 25.503 6.018 26.076 8.501 28.846 10.698 32.38 12.704 35.914 13.85 37.92 14.901 39.926 15.952 41.932 16.907 43.747 17.957 45.466 18.912 47.281 19.008 47.472 19.199 47.663 19.39 47.854 22.16 51.483 28.846 52.725 28.464 46.803 28.082 41.55 26.936 36.297 25.408 31.138 31.425 34.577 37.825 37.347 44.607 39.257Z" fill="#eb078c"/>
<path transform="matrix(1,0,0,-1,444.9863,345.27815)" d="M0 0C-2.056-2.204-3.725-4.222-5.182-6.25-7.242-9.113-8.606-11.511-9.473-13.798L-9.486-13.83C-9.766-14.483-9.977-15.091-10.123-15.671-10.056-15.596-9.99-15.52-9.926-15.445-9.529-15.008-9.389-14.873-9.288-14.779-9.252-14.74-9.206-14.676-9.089-14.518L-8.813-14.15-7.392-12.16-4.92-8.451-5.01-8.361-4.642-7.796C-3.059-5.364-1.523-2.786 0 0M-12.036-19.996V-17.61C-12.036-16.217-11.714-14.813-11.021-13.192-9.812-10.011-7.88-7.154-6.531-5.28-4.191-2.022-1.334 1.194 2.734 5.146L6.245 8.557 4.056 4.178C1.768-.399-.506-4.435-2.884-8.137L-2.781-8.239-6.025-13.104-7.757-15.512C-8-15.838-8.031-15.88-8.158-15.998-8.209-16.045-8.315-16.143-8.68-16.545-9.266-17.229-9.954-17.916-10.618-18.58ZM8.113 17.442C7.401 16.374 6.648 15.311 5.853 14.275L7.392 15.557C7.641 16.203 7.882 16.829 8.113 17.442M13.096 27.169 12.132 23.986C11.169 20.807 9.992 17.671 8.864 14.757L8.786 14.556 5.183 11.553C-1.32 6.077-5.877 1.463-9.589-3.405-16.996-12.978-17.673-18.257-17.539-21.395-17.459-23.369-16.709-24.889-15.428-25.677-14.151-26.462-12.469-26.45-10.689-25.641-8.114-24.47-5.622-22.471-2.848-19.35 4.415-11.372 9.473-1.635 13.069 5.956 15.055 10.138 16.703 13.961 18.106 17.645L18.196 17.881 18.401 18.027C25.391 22.99 32.59 26.849 39.801 29.496 39.995 29.568 40.202 29.781 40.37 30.061 34.079 28.242 27.858 25.588 21.874 22.168L20.077 21.141 20.665 23.125C22.357 28.838 23.347 33.905 23.689 38.614 23.794 40.242 23.323 41.268 22.287 41.656 20.531 42.312 17.644 41.118 16.104 39.1L16.031 39.017C15.918 38.904 15.747 38.732 15.709 38.659 15.218 37.726 14.705 36.821 14.208 35.947 13.719 35.084 13.212 34.191 12.741 33.296 11.706 31.32 10.635 29.275 9.479 27.253 7.746 24.198 5.406 20.301 2.69 17.272L2.659 17.24 .697 15.277H.453L.101 15.101C-.074 14.985-.078 14.987-.112 14.971-.132 14.961-.17 14.94-.366 14.822L-.444 14.775-.531 14.747C-.945 14.608-1.113 14.608-1.176 14.608H-2.675V15.439C-2.675 15.724-2.718 16.122-2.744 16.361-2.762 16.522-2.771 16.639-2.771 16.681V17.349C-2.771 17.936-2.771 18.542-2.67 19.171-2.57 20.343-2.375 21.512-2.187 22.644L-1.911 24.022V24.743L-.722 28.31C-.329 29.49 .162 30.667 .636 31.805L.66 31.857 1.372 33.281C1.347 33.462 1.383 33.685 1.52 33.959L1.58 34.079 1.674 34.173C1.696 34.195 1.717 34.215 1.735 34.236 1.696 34.19 1.623 34.055 1.623 33.874H1.88L1.71 33.958C1.745 34.029 1.781 34.099 1.816 34.17 1.753 34.138 1.696 34.098 1.649 34.053L1.866 34.269C2.29 35.115 2.735 35.977 3.261 36.774 3.45 37.151 3.666 37.575 3.986 38.002 4.003 38.025 4.024 38.052 4.046 38.081L4.002 38.118C4.541 38.792 7.125 42.255 5.032 44.258 4.329 44.926 3.413 45.015 2.772 44.972 1.414 44.88-.1 44.109-.909 43.098-3.814 39.51-6.24 35.176-8.33 29.845-10.648 23.945-11.692 18.586-11.521 13.461-11.52 11.874-11.272 10.804-10.689 9.857-9.71 8.25-7.935 7.641-5.415 8.045-2.568 8.547 .427 10.37 2.583 12.919 5.711 16.438 8.253 20.624 10.329 24.256L10.384 24.353 10.462 24.431C10.463 24.435 10.482 24.466 10.502 24.496 10.564 24.59 10.643 24.707 10.748 24.813ZM-13.288-27.922C-14.379-27.922-15.401-27.645-16.299-27.092-18.065-26.005-19.096-24.007-19.199-21.465-19.345-18.067-18.644-12.392-10.907-2.392-8.412 .88-5.547 4.036-1.993 7.4-3.03 6.93-4.092 6.591-5.139 6.406-8.361 5.889-10.764 6.785-12.106 8.99-13.06 10.539-13.182 12.178-13.182 13.433-13.36 18.761-12.28 24.338-9.877 30.452-7.724 35.944-5.214 40.421-2.204 44.139-1.112 45.505 .844 46.507 2.659 46.63 4.061 46.722 5.276 46.32 6.179 45.46 8.236 43.493 7.631 40.668 6.174 38.316 6.101 38.018 5.864 37.714 5.631 37.414 5.508 37.256 5.385 37.099 5.316 37.005 5.072 36.681 4.904 36.343 4.726 35.986L4.673 35.896C4.126 35.076 3.654 34.13 3.197 33.216L2.155 31.131C1.697 30.032 1.225 28.895 .854 27.784L-.25 24.474-.266 23.777-.552 22.344C-.733 21.261-.924 20.115-1.017 19L-1.025 18.931C-1.109 18.426-1.109 17.903-1.109 17.349V16.681C-1.108 16.679-1.101 16.618-1.092 16.54-1.086 16.48-1.078 16.411-1.071 16.337-.958 16.402-.907 16.43-.879 16.445-.859 16.458-.829 16.478-.778 16.512L-.687 16.564-.044 16.886 1.468 18.398C4.072 21.307 6.345 25.097 8.035 28.075 9.177 30.073 10.24 32.104 11.269 34.068 11.754 34.989 12.267 35.893 12.763 36.767 13.253 37.63 13.76 38.523 14.231 39.418 14.371 39.698 14.604 39.94 14.818 40.154 16.831 42.754 20.431 44.126 22.869 43.212 23.884 42.832 25.555 41.715 25.347 38.5 25.035 34.206 24.204 29.641 22.813 24.593 28.227 27.532 33.818 29.86 39.471 31.53L38.899 32.673 39.855 32.952C41.232 33.352 42.006 32.638 42.25 31.904 42.672 30.637 41.841 28.486 40.379 27.938 33.372 25.365 26.373 21.625 19.569 16.817 18.169 13.164 16.533 9.376 14.57 5.244 10.926-2.451 5.792-12.328-1.612-20.462-4.54-23.755-7.208-25.884-10.002-27.154-11.128-27.666-12.24-27.922-13.288-27.922" fill="#ffffff"/>
<path transform="matrix(1,0,0,-1,495.1577,340.4558)" d="M0 0C-2.279-2.507-3.975-4.666-5.339-6.797L-5.36-6.833C-5.436-6.966-5.617-7.219-5.809-7.487-6.859-8.953-7.574-10.061-7.231-10.975-6.862-12.088-5.167-12.088-4.352-12.088L-4.297-12.086C-2.744-11.982-1.057-11.273 .134-10.227L.139-10.233C2.886-7.595 2.586-3.351 1.389-.259L.904 .995ZM-5.412-18.284C-7.932-18.284-10.141-17.452-11.322-16.059-12.174-15.053-12.478-13.772-12.225-12.253-11.922-10.362-10.722-8.601-9.562-6.898-9.375-6.624-9.19-6.352-9.01-6.082-7.775-4.23-6.33-2.386-4.593-.444-3.546 .793-2.395 1.943-1.281 3.056L-.72 3.618-1.255 4.204C-2.078 5.105-2.967 5.947-3.827 6.762-5.134 7.999-6.368 9.167-7.416 10.546-11.1 15.631-10.352 20.967-9.074 24.545-7.492 28.974-4.195 33.334-.028 36.509 3.861 39.524 7.41 41.05 10.524 41.05 11.503 41.05 12.447 40.894 13.333 40.588 15.939 39.663 16.874 37.853 17.198 36.499 17.784 34.049 16.887 31.126 14.913 29.05 13.905 27.979 12.443 27.289 11.188 27.289 10.586 27.289 10.039 27.443 9.562 27.746 8.538 28.409 8.268 29.606 8.767 31.3L9.08 32.366H8.113C8.007 32.412 7.861 32.461 7.683 32.461H7.592L7.502 32.441C6.585 32.237 5.747 32.025 4.796 31.497L4.756 31.473C2.982 30.353 .997 28.936-.279 26.916-3.367 21.805-.521 17.461 2.669 13.884 3.605 12.863 4.545 11.672 5.471 10.335L5.975 9.608 6.669 10.156C9.809 12.634 13.398 15.137 17.966 18.034 18.82 18.572 19.679 19.126 20.543 19.682 24.071 21.957 27.72 24.309 31.502 25.897L31.651 25.96 31.736 26.044C31.948 26.117 32.094 26.134 32.182 26.134 32.341 26.134 32.388 26.102 32.436 25.958 32.599 25.469 32.321 24.522 31.732 24.081 29.111 22.127 26.286 20.329 23.554 18.59 21.239 17.117 18.846 15.593 16.562 13.968 13.931 12.039 11.169 9.873 8.108 7.341L7.613 6.931 7.885 6.349C8.6 4.816 9.114 3.369 9.453 1.926 10.445-2.673 9.356-7.708 6.537-11.528 3.515-15.557-.578-18.013-4.689-18.26-4.931-18.276-5.172-18.284-5.412-18.284" fill="#eb078c"/>
<path transform="matrix(1,0,0,-1,490.8054,351.7127)" d="M0 0C-.477 0-1.91 0-2.101 .573-2.388 1.337-.669 3.343-.287 4.012 1.242 6.4 3.057 8.597 4.967 10.698 6.113 7.737 6.304 3.916 3.916 1.624L4.012 1.72C2.961 .764 1.433 .096 0 0M14.877 53.138C10.866 53.138 6.86 50.782 3.821 48.427-4.203 42.314-10.507 30.661-3.725 21.3-1.91 18.913 .478 17.098 2.483 14.901 1.337 13.755 .191 12.608-.86 11.367-2.483 9.552-4.012 7.642-5.349 5.636-6.686 3.63-8.31 1.528-8.692-.86-9.5-5.711-5.155-7.858-1.059-7.858-.801-7.858-.542-7.849-.287-7.832 4.489-7.546 8.692-4.585 11.558-.764 14.519 3.248 15.665 8.501 14.614 13.373 14.232 14.996 13.659 16.525 12.99 17.957 15.76 20.25 18.53 22.447 21.396 24.548 26.363 28.082 31.711 31.043 36.583 34.673 37.904 35.663 38.154 38.222 36.535 38.222 36.28 38.222 35.979 38.159 35.628 38.016L35.532 37.92C30.757 35.915 26.267 32.762 21.873 29.992 17.957 27.509 14.137 24.93 10.507 22.065 9.647 23.306 8.692 24.548 7.641 25.694 4.489 29.228 2.006 33.145 4.776 37.729 5.922 39.544 7.737 40.881 9.552 42.028 10.411 42.505 11.176 42.696 12.035 42.887 12.131 42.887 12.226 42.792 12.322 42.792 11.844 41.168 11.844 39.353 13.468 38.302 14.114 37.891 14.823 37.715 15.54 37.715 17.155 37.715 18.809 38.611 19.868 39.735 23.593 43.651 23.879 50.528 17.957 52.63 16.941 52.982 15.909 53.138 14.877 53.138M-3.669 .021C-3.085-1.662-.925-1.662 0-1.662H.055L.111-1.658C1.876-1.54 3.72-.761 5.063 .43L5.067 .425C8.108 3.345 7.81 7.956 6.517 11.298L5.546 13.805 3.737 11.816C1.427 9.275-.296 7.08-1.686 4.908L-1.709 4.872-1.73 4.836C-1.784 4.74-1.978 4.47-2.133 4.253-3.086 2.921-4.166 1.412-3.669 .021M14.877 51.476C15.762 51.476 16.616 51.336 17.401 51.064 19.191 50.429 20.346 49.218 20.742 47.562 21.256 45.413 20.421 42.728 18.658 40.874 17.815 39.978 16.562 39.377 15.54 39.377 15.092 39.377 14.707 39.484 14.371 39.697 14.089 39.88 13.34 40.364 13.916 42.323L14.543 44.453H12.619C12.465 44.504 12.266 44.549 12.035 44.549H11.853L11.675 44.509C10.728 44.299 9.792 44.062 8.745 43.48L8.704 43.458 8.665 43.433C6.812 42.263 4.735 40.776 3.371 38.617L3.362 38.603 3.354 38.589C-.458 32.279 4.349 26.89 6.401 24.588L6.409 24.58 6.417 24.571C7.321 23.585 8.238 22.423 9.141 21.119L10.148 19.664 11.537 20.76C14.652 23.22 18.219 25.707 22.76 28.587 23.62 29.129 24.497 29.694 25.345 30.241 28.721 32.417 32.207 34.664 35.784 36.221 35.729 36.136 35.664 36.061 35.59 36.005 32.991 34.069 30.179 32.279 27.461 30.548 25.137 29.069 22.734 27.54 20.432 25.902L20.423 25.895 20.413 25.888C17.776 23.954 15.002 21.779 11.931 19.237L10.941 18.418 11.485 17.254C12.173 15.78 12.666 14.39 12.993 13.007 13.933 8.627 12.897 3.849 10.228 .233 7.349-3.606 3.48-5.942-.397-6.174-.616-6.189-.839-6.196-1.059-6.196-3.304-6.196-5.326-5.456-6.335-4.265-7.032-3.442-7.267-2.418-7.051-1.122-6.779 .581-5.632 2.264-4.523 3.891-4.335 4.168-4.148 4.442-3.966 4.714-2.754 6.532-1.333 8.346 .379 10.258L.394 10.276 .409 10.293C1.415 11.482 2.505 12.572 3.658 13.726L4.781 14.849 3.711 16.021C2.867 16.945 1.967 17.797 1.096 18.622-.18 19.831-1.386 20.973-2.391 22.291-5.86 27.093-5.148 32.136-3.939 35.523-2.41 39.804 .785 44.025 4.839 47.114 8.574 50.008 11.951 51.476 14.877 51.476" fill="#ffffff"/>
</g>
</g>
</svg>
